M48
; DRILL file {KiCad 8.0.4} date 2024-08-22T21:33:04+0200
; FORMAT={-:-/ absolute / inch / decimal}
; #@! TF.CreationDate,2024-08-22T21:33:04+02:00
; #@! TF.GenerationSoftware,Kicad,Pcbnew,8.0.4
; #@! TF.FileFunction,Plated,1,2,PTH
FMAT,2
INCH
; #@! TA.AperFunction,Plated,PTH,ViaDrill
T1C0.0118
; #@! TA.AperFunction,Plated,PTH,ComponentDrill
T2C0.0236
%
G90
G05
T1
X3.9843Y-3.5433
X4.0157Y-3.6535
X4.0157Y-3.7126
X4.0157Y-3.7717
X4.0157Y-3.8307
X4.1732Y-3.6811
X4.1732Y-3.7402
X4.1732Y-3.7992
X4.2421Y-3.4941
X4.2717Y-3.6457
X4.2717Y-3.8346
X4.2992Y-3.9193
X4.3445Y-3.8012
X4.4173Y-3.8012
X4.4331Y-3.5551
X4.4685Y-3.8957
X4.4685Y-3.9764
X4.5039Y-3.7047
X4.5276Y-3.9764
X4.5374Y-3.878
X4.5472Y-3.6969
X4.5866Y-3.9764
T2
G00X4.0561Y-3.5701
M15
G01X4.0246Y-3.5701
M16
G05
G00X4.0561Y-3.9102
M15
G01X4.0246Y-3.9102
M16
G05
G00X4.2266Y-3.5701
M15
G01X4.1833Y-3.5701
M16
G05
G00X4.2266Y-3.9102
M15
G01X4.1833Y-3.9102
M16
G05
M30
