%TF.GenerationSoftware,KiCad,Pcbnew,8.0.4*%
%TF.CreationDate,2024-08-22T21:32:57+02:00*%
%TF.ProjectId,LMS_Charger,4c4d535f-4368-4617-9267-65722e6b6963,v0.2.0-L*%
%TF.SameCoordinates,Original*%
%TF.FileFunction,Copper,L2,Bot*%
%TF.FilePolarity,Positive*%
%FSLAX46Y46*%
G04 Gerber Fmt 4.6, Leading zero omitted, Abs format (unit mm)*
G04 Created by KiCad (PCBNEW 8.0.4) date 2024-08-22 21:32:57*
%MOMM*%
%LPD*%
G01*
G04 APERTURE LIST*
%TA.AperFunction,ComponentPad*%
%ADD10O,2.100000X1.000000*%
%TD*%
%TA.AperFunction,ComponentPad*%
%ADD11O,1.800000X1.000000*%
%TD*%
%TA.AperFunction,SMDPad,CuDef*%
%ADD12O,5.000000X2.000000*%
%TD*%
%TA.AperFunction,ViaPad*%
%ADD13C,0.600000*%
%TD*%
%TA.AperFunction,Conductor*%
%ADD14C,0.200000*%
%TD*%
%TA.AperFunction,Conductor*%
%ADD15C,0.400000*%
%TD*%
G04 APERTURE END LIST*
D10*
%TO.P,J1,S1,SHIELD*%
%TO.N,GNDD*%
X106805000Y-90680000D03*
D11*
X102625000Y-90680000D03*
D10*
X106805000Y-99320000D03*
D11*
X102625000Y-99320000D03*
%TD*%
D12*
%TO.P,J5,1,Pin_1*%
%TO.N,GNDD*%
X115000000Y-101000000D03*
%TD*%
%TO.P,J4,1,Pin_1*%
%TO.N,+BATT*%
X115000000Y-89000000D03*
%TD*%
D13*
%TO.N,+5V*%
X108500000Y-97400000D03*
X101200000Y-90000000D03*
X108500000Y-92600000D03*
%TO.N,+BATT*%
X115500000Y-93900000D03*
X112600000Y-90300000D03*
%TO.N,GNDD*%
X116500000Y-101000000D03*
X114400000Y-94100000D03*
X113500000Y-101000000D03*
X113500000Y-98950000D03*
X102000000Y-94300000D03*
X107750000Y-88750000D03*
X106000000Y-93500000D03*
X106000000Y-96500000D03*
X102000000Y-97300000D03*
X115250000Y-98500000D03*
X109200000Y-99550000D03*
X112200000Y-96550000D03*
X102000000Y-95800000D03*
X102000000Y-92800000D03*
X106000000Y-95000000D03*
X115000000Y-101000000D03*
X110350000Y-96550000D03*
%TD*%
D14*
%TO.N,+5V*%
X108500000Y-92600000D02*
X108500000Y-90200000D01*
X107950000Y-89650000D02*
X101550000Y-89650000D01*
X108500000Y-90200000D02*
X107950000Y-89650000D01*
X101550000Y-89650000D02*
X101200000Y-90000000D01*
D15*
X108500000Y-95000000D02*
X108500000Y-92600000D01*
X108500000Y-97400000D02*
X108500000Y-95000000D01*
%TO.N,+BATT*%
X115000000Y-89000000D02*
X113900000Y-89000000D01*
X113900000Y-89000000D02*
X112600000Y-90300000D01*
X115000000Y-90300000D02*
X115000000Y-89000000D01*
X115500000Y-93900000D02*
X115500000Y-90800000D01*
X115500000Y-90800000D02*
X115000000Y-90300000D01*
%TD*%
%TA.AperFunction,Conductor*%
%TO.N,GNDD*%
G36*
X112620921Y-88019407D02*
G01*
X112656885Y-88068907D01*
X112656885Y-88130093D01*
X112632735Y-88169501D01*
X112584310Y-88217927D01*
X112584309Y-88217928D01*
X112473238Y-88370803D01*
X112387453Y-88539167D01*
X112329058Y-88718886D01*
X112299500Y-88905515D01*
X112299500Y-89094484D01*
X112329058Y-89281113D01*
X112387453Y-89460832D01*
X112473239Y-89629198D01*
X112473241Y-89629202D01*
X112502304Y-89669203D01*
X112521211Y-89727393D01*
X112502303Y-89785584D01*
X112452803Y-89821548D01*
X112450104Y-89822382D01*
X112389952Y-89840044D01*
X112389942Y-89840049D01*
X112268873Y-89917855D01*
X112174622Y-90026628D01*
X112114834Y-90157543D01*
X112094353Y-90299997D01*
X112094353Y-90300002D01*
X112114834Y-90442456D01*
X112174622Y-90573370D01*
X112174623Y-90573373D01*
X112232792Y-90640504D01*
X112268873Y-90682144D01*
X112370216Y-90747273D01*
X112389947Y-90759953D01*
X112496403Y-90791211D01*
X112528035Y-90800499D01*
X112528036Y-90800499D01*
X112528039Y-90800500D01*
X112528041Y-90800500D01*
X112671959Y-90800500D01*
X112671961Y-90800500D01*
X112810053Y-90759953D01*
X112931128Y-90682143D01*
X113025377Y-90573373D01*
X113085165Y-90442457D01*
X113090756Y-90403562D01*
X113117749Y-90348657D01*
X113118677Y-90347714D01*
X113249316Y-90217075D01*
X113303831Y-90189300D01*
X113334805Y-90189300D01*
X113360139Y-90193312D01*
X113405517Y-90200500D01*
X113405519Y-90200500D01*
X114500500Y-90200500D01*
X114558691Y-90219407D01*
X114594655Y-90268907D01*
X114599500Y-90299500D01*
X114599500Y-90352727D01*
X114613122Y-90403566D01*
X114626794Y-90454592D01*
X114679516Y-90545908D01*
X114679520Y-90545913D01*
X114880881Y-90747274D01*
X115070503Y-90936895D01*
X115098281Y-90991412D01*
X115099500Y-91006899D01*
X115099500Y-93560992D01*
X115080593Y-93619183D01*
X115075321Y-93625821D01*
X115074623Y-93626626D01*
X115014834Y-93757543D01*
X114994353Y-93899997D01*
X114994353Y-93900002D01*
X115014834Y-94042456D01*
X115074622Y-94173371D01*
X115074623Y-94173373D01*
X115168872Y-94282143D01*
X115168873Y-94282144D01*
X115289942Y-94359950D01*
X115289947Y-94359953D01*
X115396403Y-94391211D01*
X115428035Y-94400499D01*
X115428036Y-94400499D01*
X115428039Y-94400500D01*
X115428041Y-94400500D01*
X115571959Y-94400500D01*
X115571961Y-94400500D01*
X115710053Y-94359953D01*
X115831128Y-94282143D01*
X115925377Y-94173373D01*
X115985165Y-94042457D01*
X116005647Y-93900000D01*
X115985165Y-93757543D01*
X115925377Y-93626627D01*
X115924679Y-93625821D01*
X115924332Y-93625001D01*
X115921549Y-93620670D01*
X115922298Y-93620188D01*
X115900863Y-93569461D01*
X115900500Y-93560992D01*
X115900500Y-90747274D01*
X115900500Y-90747273D01*
X115873207Y-90645413D01*
X115873207Y-90645412D01*
X115846843Y-90599750D01*
X115820480Y-90554087D01*
X115745913Y-90479520D01*
X115745910Y-90479518D01*
X115635893Y-90369501D01*
X115608118Y-90314987D01*
X115617689Y-90254555D01*
X115660954Y-90211290D01*
X115705899Y-90200500D01*
X116594484Y-90200500D01*
X116781113Y-90170941D01*
X116781114Y-90170940D01*
X116781118Y-90170940D01*
X116960832Y-90112547D01*
X117129199Y-90026760D01*
X117282073Y-89915690D01*
X117330498Y-89867264D01*
X117385013Y-89839489D01*
X117445445Y-89849060D01*
X117488710Y-89892325D01*
X117499500Y-89937270D01*
X117499500Y-100063436D01*
X117480593Y-100121627D01*
X117431093Y-100157591D01*
X117369907Y-100157591D01*
X117330496Y-100133440D01*
X117281742Y-100084686D01*
X117128940Y-99973669D01*
X117128936Y-99973667D01*
X116960635Y-99887914D01*
X116780996Y-99829546D01*
X116594445Y-99800000D01*
X115100001Y-99800000D01*
X115100000Y-99800001D01*
X115100000Y-101001000D01*
X115081093Y-101059191D01*
X115031593Y-101095155D01*
X115001000Y-101100000D01*
X112300880Y-101100000D01*
X112329546Y-101280996D01*
X112387914Y-101460635D01*
X112473667Y-101628936D01*
X112473669Y-101628940D01*
X112584686Y-101781742D01*
X112633440Y-101830496D01*
X112661217Y-101885013D01*
X112651646Y-101945445D01*
X112608381Y-101988710D01*
X112563436Y-101999500D01*
X100599500Y-101999500D01*
X100541309Y-101980593D01*
X100505345Y-101931093D01*
X100500500Y-101900500D01*
X100500500Y-100900000D01*
X112300880Y-100900000D01*
X114899999Y-100900000D01*
X114900000Y-100899999D01*
X114900000Y-99800001D01*
X114899999Y-99800000D01*
X113405555Y-99800000D01*
X113219003Y-99829546D01*
X113039364Y-99887914D01*
X112871063Y-99973667D01*
X112871059Y-99973669D01*
X112718257Y-100084686D01*
X112584686Y-100218257D01*
X112473669Y-100371059D01*
X112473667Y-100371063D01*
X112387914Y-100539364D01*
X112329546Y-100719003D01*
X112300880Y-100900000D01*
X100500500Y-100900000D01*
X100500500Y-99220000D01*
X101531177Y-99220000D01*
X101941212Y-99220000D01*
X101925000Y-99280504D01*
X101925000Y-99359496D01*
X101941212Y-99420000D01*
X101531178Y-99420000D01*
X101551901Y-99524181D01*
X101551901Y-99524183D01*
X101604666Y-99651571D01*
X101681271Y-99766220D01*
X101778779Y-99863728D01*
X101893428Y-99940333D01*
X102020816Y-99993098D01*
X102156055Y-100019999D01*
X102156057Y-100020000D01*
X102524999Y-100020000D01*
X102525000Y-100019999D01*
X102525000Y-99620000D01*
X102725000Y-99620000D01*
X102725000Y-100019999D01*
X102725001Y-100020000D01*
X103093943Y-100020000D01*
X103093944Y-100019999D01*
X103229183Y-99993098D01*
X103356571Y-99940333D01*
X103471220Y-99863728D01*
X103568728Y-99766220D01*
X103645333Y-99651571D01*
X103698098Y-99524183D01*
X103698098Y-99524181D01*
X103718822Y-99420000D01*
X103308788Y-99420000D01*
X103325000Y-99359496D01*
X103325000Y-99280504D01*
X103308788Y-99220000D01*
X103718822Y-99220000D01*
X105561177Y-99220000D01*
X105971212Y-99220000D01*
X105955000Y-99280504D01*
X105955000Y-99359496D01*
X105971212Y-99420000D01*
X105561178Y-99420000D01*
X105581901Y-99524181D01*
X105581901Y-99524183D01*
X105634666Y-99651571D01*
X105711271Y-99766220D01*
X105808779Y-99863728D01*
X105923428Y-99940333D01*
X106050816Y-99993098D01*
X106186055Y-100019999D01*
X106186057Y-100020000D01*
X106704999Y-100020000D01*
X106705000Y-100019999D01*
X106705000Y-99620000D01*
X106905000Y-99620000D01*
X106905000Y-100019999D01*
X106905001Y-100020000D01*
X107423943Y-100020000D01*
X107423944Y-100019999D01*
X107559183Y-99993098D01*
X107686571Y-99940333D01*
X107801220Y-99863728D01*
X107898728Y-99766220D01*
X107975333Y-99651571D01*
X108028098Y-99524183D01*
X108028098Y-99524181D01*
X108048822Y-99420000D01*
X107638788Y-99420000D01*
X107655000Y-99359496D01*
X107655000Y-99280504D01*
X107638788Y-99220000D01*
X108048822Y-99220000D01*
X108028098Y-99115818D01*
X108028098Y-99115816D01*
X107975333Y-98988428D01*
X107898728Y-98873779D01*
X107801220Y-98776271D01*
X107686571Y-98699666D01*
X107559183Y-98646901D01*
X107423944Y-98620000D01*
X106905001Y-98620000D01*
X106905000Y-98620001D01*
X106905000Y-99020000D01*
X106705000Y-99020000D01*
X106705000Y-98620001D01*
X106704999Y-98620000D01*
X106556145Y-98620000D01*
X106497954Y-98601093D01*
X106461990Y-98551593D01*
X106461990Y-98490407D01*
X106497954Y-98440907D01*
X106521517Y-98429668D01*
X106521143Y-98428763D01*
X106527129Y-98426282D01*
X106527135Y-98426281D01*
X106658365Y-98350515D01*
X106765515Y-98243365D01*
X106841281Y-98112135D01*
X106880500Y-97965766D01*
X106880500Y-97814234D01*
X106841281Y-97667865D01*
X106841279Y-97667862D01*
X106841279Y-97667860D01*
X106765518Y-97536639D01*
X106765516Y-97536637D01*
X106765515Y-97536635D01*
X106658365Y-97429485D01*
X106658362Y-97429483D01*
X106658360Y-97429481D01*
X106527138Y-97353720D01*
X106527140Y-97353720D01*
X106470347Y-97338503D01*
X106380766Y-97314500D01*
X106229234Y-97314500D01*
X106139652Y-97338503D01*
X106082860Y-97353720D01*
X105951639Y-97429481D01*
X105844481Y-97536639D01*
X105768720Y-97667860D01*
X105767243Y-97673373D01*
X105729500Y-97814234D01*
X105729500Y-97965766D01*
X105764086Y-98094847D01*
X105768720Y-98112139D01*
X105844481Y-98243360D01*
X105844483Y-98243362D01*
X105844485Y-98243365D01*
X105951635Y-98350515D01*
X105951637Y-98350516D01*
X105951639Y-98350518D01*
X106082861Y-98426279D01*
X106082859Y-98426279D01*
X106082863Y-98426280D01*
X106082865Y-98426281D01*
X106131650Y-98439352D01*
X106182963Y-98472676D01*
X106204890Y-98529798D01*
X106189055Y-98588898D01*
X106141505Y-98627403D01*
X106125341Y-98632077D01*
X106050816Y-98646901D01*
X105923428Y-98699666D01*
X105808779Y-98776271D01*
X105711271Y-98873779D01*
X105634666Y-98988428D01*
X105581901Y-99115816D01*
X105581901Y-99115818D01*
X105561177Y-99220000D01*
X103718822Y-99220000D01*
X103698098Y-99115818D01*
X103698098Y-99115816D01*
X103645333Y-98988428D01*
X103568728Y-98873779D01*
X103471220Y-98776271D01*
X103356571Y-98699666D01*
X103229183Y-98646901D01*
X103093944Y-98620000D01*
X102725001Y-98620000D01*
X102725000Y-98620001D01*
X102725000Y-99020000D01*
X102525000Y-99020000D01*
X102525000Y-98620001D01*
X102524999Y-98620000D01*
X102156055Y-98620000D01*
X102020816Y-98646901D01*
X101893428Y-98699666D01*
X101778779Y-98776271D01*
X101681271Y-98873779D01*
X101604666Y-98988428D01*
X101551901Y-99115816D01*
X101551901Y-99115818D01*
X101531177Y-99220000D01*
X100500500Y-99220000D01*
X100500500Y-90035924D01*
X100510597Y-90004847D01*
X100508879Y-89997911D01*
X100687782Y-89997911D01*
X100697492Y-90021835D01*
X100714834Y-90142456D01*
X100746270Y-90211290D01*
X100774623Y-90273373D01*
X100859170Y-90370946D01*
X100868873Y-90382144D01*
X100962724Y-90442458D01*
X100989947Y-90459953D01*
X101096403Y-90491211D01*
X101128035Y-90500499D01*
X101128036Y-90500499D01*
X101128039Y-90500500D01*
X101128041Y-90500500D01*
X101271959Y-90500500D01*
X101271961Y-90500500D01*
X101407164Y-90460801D01*
X101468322Y-90462548D01*
X101516775Y-90499911D01*
X101534013Y-90558618D01*
X101532151Y-90575104D01*
X101531177Y-90579999D01*
X101531178Y-90580000D01*
X101941212Y-90580000D01*
X101925000Y-90640504D01*
X101925000Y-90719496D01*
X101941212Y-90780000D01*
X101531178Y-90780000D01*
X101551901Y-90884181D01*
X101551901Y-90884183D01*
X101604666Y-91011571D01*
X101681271Y-91126220D01*
X101778779Y-91223728D01*
X101893428Y-91300333D01*
X102020816Y-91353098D01*
X102156055Y-91379999D01*
X102156057Y-91380000D01*
X102524999Y-91380000D01*
X102525000Y-91379999D01*
X102525000Y-90980000D01*
X102725000Y-90980000D01*
X102725000Y-91379999D01*
X102725001Y-91380000D01*
X103093943Y-91380000D01*
X103093944Y-91379999D01*
X103229183Y-91353098D01*
X103356571Y-91300333D01*
X103471220Y-91223728D01*
X103568728Y-91126220D01*
X103645333Y-91011571D01*
X103698098Y-90884183D01*
X103698098Y-90884181D01*
X103718822Y-90780000D01*
X103308788Y-90780000D01*
X103325000Y-90719496D01*
X103325000Y-90640504D01*
X103308788Y-90580000D01*
X103718822Y-90580000D01*
X103698098Y-90475818D01*
X103698098Y-90475816D01*
X103645333Y-90348428D01*
X103568728Y-90233779D01*
X103471218Y-90136269D01*
X103464553Y-90131816D01*
X103426673Y-90083767D01*
X103424270Y-90022629D01*
X103458262Y-89971754D01*
X103515665Y-89950576D01*
X103519553Y-89950500D01*
X105760447Y-89950500D01*
X105818638Y-89969407D01*
X105854602Y-90018907D01*
X105854602Y-90080093D01*
X105818638Y-90129593D01*
X105815447Y-90131816D01*
X105808781Y-90136269D01*
X105711271Y-90233779D01*
X105634666Y-90348428D01*
X105581901Y-90475816D01*
X105581901Y-90475818D01*
X105561177Y-90580000D01*
X105971212Y-90580000D01*
X105955000Y-90640504D01*
X105955000Y-90719496D01*
X105971212Y-90780000D01*
X105561178Y-90780000D01*
X105581901Y-90884181D01*
X105581901Y-90884183D01*
X105634666Y-91011571D01*
X105711271Y-91126220D01*
X105808779Y-91223728D01*
X105923428Y-91300333D01*
X106050817Y-91353098D01*
X106125340Y-91367922D01*
X106178724Y-91397819D01*
X106204340Y-91453384D01*
X106192403Y-91513393D01*
X106147473Y-91554926D01*
X106131650Y-91560646D01*
X106082865Y-91573718D01*
X106082861Y-91573720D01*
X105951639Y-91649481D01*
X105844481Y-91756639D01*
X105768720Y-91887860D01*
X105768719Y-91887865D01*
X105729500Y-92034234D01*
X105729500Y-92185766D01*
X105736607Y-92212289D01*
X105768720Y-92332139D01*
X105844481Y-92463360D01*
X105844483Y-92463362D01*
X105844485Y-92463365D01*
X105951635Y-92570515D01*
X105951637Y-92570516D01*
X105951639Y-92570518D01*
X106082861Y-92646279D01*
X106082859Y-92646279D01*
X106082863Y-92646280D01*
X106082865Y-92646281D01*
X106229234Y-92685500D01*
X106229236Y-92685500D01*
X106380764Y-92685500D01*
X106380766Y-92685500D01*
X106527135Y-92646281D01*
X106527137Y-92646279D01*
X106527139Y-92646279D01*
X106658360Y-92570518D01*
X106658360Y-92570517D01*
X106658365Y-92570515D01*
X106765515Y-92463365D01*
X106841281Y-92332135D01*
X106880500Y-92185766D01*
X106880500Y-92034234D01*
X106841281Y-91887865D01*
X106841279Y-91887862D01*
X106841279Y-91887860D01*
X106765518Y-91756639D01*
X106765516Y-91756637D01*
X106765515Y-91756635D01*
X106658365Y-91649485D01*
X106658362Y-91649483D01*
X106658360Y-91649481D01*
X106527138Y-91573720D01*
X106521143Y-91571237D01*
X106522024Y-91569108D01*
X106479207Y-91541302D01*
X106457281Y-91484180D01*
X106473117Y-91425080D01*
X106520668Y-91386575D01*
X106556145Y-91380000D01*
X106704999Y-91380000D01*
X106705000Y-91379999D01*
X106705000Y-90980000D01*
X106905000Y-90980000D01*
X106905000Y-91379999D01*
X106905001Y-91380000D01*
X107423943Y-91380000D01*
X107423944Y-91379999D01*
X107559183Y-91353098D01*
X107686571Y-91300333D01*
X107801220Y-91223728D01*
X107898728Y-91126220D01*
X107975333Y-91011572D01*
X108009036Y-90930204D01*
X108048772Y-90883678D01*
X108108266Y-90869394D01*
X108164795Y-90892808D01*
X108196764Y-90944977D01*
X108199500Y-90968089D01*
X108199500Y-92146105D01*
X108180593Y-92204296D01*
X108173258Y-92212289D01*
X108173509Y-92212506D01*
X108074622Y-92326628D01*
X108014834Y-92457543D01*
X107994353Y-92599997D01*
X107994353Y-92600002D01*
X108014834Y-92742456D01*
X108074623Y-92873373D01*
X108075316Y-92874173D01*
X108075660Y-92874989D01*
X108078453Y-92879334D01*
X108077701Y-92879816D01*
X108099136Y-92930531D01*
X108099500Y-92939008D01*
X108099500Y-97060992D01*
X108080593Y-97119183D01*
X108075321Y-97125821D01*
X108074623Y-97126626D01*
X108014834Y-97257543D01*
X107994353Y-97399997D01*
X107994353Y-97400002D01*
X108014834Y-97542456D01*
X108074622Y-97673371D01*
X108074623Y-97673373D01*
X108168872Y-97782143D01*
X108168873Y-97782144D01*
X108218808Y-97814235D01*
X108289947Y-97859953D01*
X108396403Y-97891211D01*
X108428035Y-97900499D01*
X108428036Y-97900499D01*
X108428039Y-97900500D01*
X108428041Y-97900500D01*
X108571959Y-97900500D01*
X108571961Y-97900500D01*
X108710053Y-97859953D01*
X108831128Y-97782143D01*
X108925377Y-97673373D01*
X108985165Y-97542457D01*
X109001408Y-97429485D01*
X109005647Y-97400002D01*
X109005647Y-97399997D01*
X108985165Y-97257543D01*
X108925377Y-97126627D01*
X108924679Y-97125821D01*
X108924332Y-97125001D01*
X108921549Y-97120670D01*
X108922298Y-97120188D01*
X108900863Y-97069461D01*
X108900500Y-97060992D01*
X108900500Y-92939008D01*
X108919407Y-92880817D01*
X108924684Y-92874173D01*
X108924807Y-92874029D01*
X108925377Y-92873373D01*
X108985165Y-92742457D01*
X109005647Y-92600000D01*
X109001408Y-92570518D01*
X108985165Y-92457543D01*
X108925377Y-92326628D01*
X108925377Y-92326627D01*
X108831128Y-92217857D01*
X108831127Y-92217856D01*
X108826491Y-92212506D01*
X108828524Y-92210743D01*
X108803067Y-92168505D01*
X108800500Y-92146105D01*
X108800500Y-90160437D01*
X108800499Y-90160435D01*
X108795681Y-90142456D01*
X108780021Y-90084011D01*
X108746890Y-90026627D01*
X108740460Y-90015489D01*
X108684511Y-89959539D01*
X108684511Y-89959540D01*
X108134511Y-89409540D01*
X108134508Y-89409538D01*
X108118853Y-89400499D01*
X108118853Y-89400500D01*
X108065989Y-89369979D01*
X108065988Y-89369978D01*
X108065987Y-89369978D01*
X107989564Y-89349500D01*
X107989562Y-89349500D01*
X101589562Y-89349500D01*
X101510438Y-89349500D01*
X101463661Y-89362033D01*
X101434007Y-89369979D01*
X101365493Y-89409536D01*
X101365488Y-89409540D01*
X101304524Y-89470504D01*
X101250007Y-89498281D01*
X101234521Y-89499500D01*
X101128035Y-89499500D01*
X100989949Y-89540046D01*
X100989942Y-89540049D01*
X100868873Y-89617855D01*
X100774622Y-89726628D01*
X100714834Y-89857543D01*
X100697492Y-89978164D01*
X100687782Y-89997911D01*
X100508879Y-89997911D01*
X100500500Y-89964075D01*
X100500500Y-88099500D01*
X100519407Y-88041309D01*
X100568907Y-88005345D01*
X100599500Y-88000500D01*
X112562730Y-88000500D01*
X112620921Y-88019407D01*
G37*
%TD.AperFunction*%
%TD*%
M02*
